<?xml version="1.0" encoding="UTF-8" standalone="no"?>
<!-- Created with Inkscape (http://www.inkscape.org/) -->

<svg
   xmlns:osb="http://www.openswatchbook.org/uri/2009/osb"
   xmlns:dc="http://purl.org/dc/elements/1.1/"
   xmlns:cc="http://creativecommons.org/ns#"
   xmlns:rdf="http://www.w3.org/1999/02/22-rdf-syntax-ns#"
   xmlns:svg="http://www.w3.org/2000/svg"
   xmlns="http://www.w3.org/2000/svg"
   xmlns:xlink="http://www.w3.org/1999/xlink"
   xmlns:sodipodi="http://sodipodi.sourceforge.net/DTD/sodipodi-0.dtd"
   xmlns:inkscape="http://www.inkscape.org/namespaces/inkscape"
   width="210mm"
   height="297mm"
   viewBox="0 0 744.09448819 1052.3622047"
   id="svg4172"
   version="1.1"
   inkscape:version="0.91 r13725"
   sodipodi:docname="az_wavy-logo.svg"
   inkscape:export-filename="/Users/ABZanganeh/Desktop/PCC/Fall2016/cas110/hop4-2/az_wavy-logo.png"
   inkscape:export-xdpi="72"
   inkscape:export-ydpi="72">
  <defs
     id="defs4174">
    <linearGradient
       inkscape:collect="always"
       id="linearGradient5895"
       osb:paint="gradient">
      <stop
         style="stop-color:#800080;stop-opacity:1;"
         offset="0"
         id="stop5897" />
      <stop
         style="stop-color:#800080;stop-opacity:0;"
         offset="1"
         id="stop5899" />
    </linearGradient>
    <linearGradient
       inkscape:collect="always"
       xlink:href="#linearGradient5895"
       id="linearGradient5901"
       x1="129.2995"
       y1="275.55487"
       x2="575.78693"
       y2="275.55487"
       gradientUnits="userSpaceOnUse" />
    <filter
       inkscape:label="Glowing Bubble"
       inkscape:menu="Ridges"
       inkscape:menu-tooltip="Bubble effect with refraction and glow"
       x="-0.25"
       y="-0.25"
       width="1.5"
       height="1.5"
       style="color-interpolation-filters:sRGB;"
       id="filter5903">
      <feGaussianBlur
         stdDeviation="1"
         result="result1"
         id="feGaussianBlur5905" />
      <feGaussianBlur
         stdDeviation="10"
         result="result6"
         in="result1"
         id="feGaussianBlur5907" />
      <feComposite
         operator="atop"
         in="result6"
         in2="result1"
         result="result8"
         id="feComposite5909" />
      <feComposite
         operator="xor"
         result="fbSourceGraphic"
         in="result6"
         in2="result8"
         id="feComposite5911" />
      <feColorMatrix
         result="fbSourceGraphicAlpha"
         in="fbSourceGraphic"
         values="0 0 0 -1 0 0 0 0 -1 0 0 0 0 -1 0 0 0 0 2 0 "
         id="feColorMatrix5913" />
      <feGaussianBlur
         result="result0"
         in="fbSourceGraphicAlpha"
         stdDeviation="1"
         id="feGaussianBlur5915" />
      <feSpecularLighting
         specularExponent="35"
         specularConstant="1.5"
         surfaceScale="-2"
         lighting-color="rgb(255,255,255)"
         result="result1"
         in="result0"
         id="feSpecularLighting5917">
        <feDistantLight
           azimuth="230"
           elevation="60"
           id="feDistantLight5919" />
      </feSpecularLighting>
      <feComposite
         operator="in"
         result="result2"
         in="result1"
         in2="fbSourceGraphicAlpha"
         id="feComposite5921" />
      <feComposite
         k3="1"
         k2="1"
         operator="arithmetic"
         result="result4"
         in="fbSourceGraphic"
         in2="result2"
         id="feComposite5923" />
      <feComposite
         operator="atop"
         in="result9"
         in2="result4"
         result="result91"
         id="feComposite5925" />
      <feBlend
         mode="multiply"
         in2="result91"
         id="feBlend5927" />
    </filter>
  </defs>
  <sodipodi:namedview
     id="base"
     pagecolor="#ffffff"
     bordercolor="#666666"
     borderopacity="1.0"
     inkscape:pageopacity="0.0"
     inkscape:pageshadow="2"
     inkscape:zoom="0.7"
     inkscape:cx="397.90262"
     inkscape:cy="673.78406"
     inkscape:document-units="px"
     inkscape:current-layer="layer1"
     showgrid="false"
     inkscape:window-width="1440"
     inkscape:window-height="851"
     inkscape:window-x="0"
     inkscape:window-y="1"
     inkscape:window-maximized="1" />
  <metadata
     id="metadata4177">
    <rdf:RDF>
      <cc:Work
         rdf:about="">
        <dc:format>image/svg+xml</dc:format>
        <dc:type
           rdf:resource="http://purl.org/dc/dcmitype/StillImage" />
        <dc:title></dc:title>
      </cc:Work>
    </rdf:RDF>
  </metadata>
  <g
     inkscape:label="Layer 1"
     inkscape:groupmode="layer"
     id="layer1">
    <circle
       style="fill:url(#linearGradient5901);fill-opacity:1;filter:url(#filter5903)"
       id="path4182"
       cx="352.54321"
       cy="275.55487"
       r="223.24371" />
    <path
       style="fill:#ffaaaa;fill-opacity:1"
       id="path5893"
       d="m 157.04457,133.30425 c 17.26999,0.6939 34.55942,0.78409 51.84113,0.82102 26.2981,0.11887 52.59661,0.0322 78.89462,-0.0678 15.78649,0.0412 31.70703,-0.73757 47.38468,1.63599 2.17382,0.32911 4.318,0.83067 6.477,1.246 5.56574,1.62073 11.49987,3.30425 16.0174,7.15243 1.4107,1.20168 2.29794,2.41965 3.43756,3.8332 0.54763,0.90343 1.63138,2.46098 1.75177,3.57577 0.60156,5.57058 -7.68891,11.74974 -11.02786,14.87348 -18.42969,16.53173 -36.61311,33.37627 -53.83039,51.18101 -4.11643,4.25688 -8.09438,8.64553 -12.14158,12.9683 -12.81211,14.37967 -25.22112,29.25293 -35.92615,45.29642 -4.18657,6.27437 -5.64954,9.16113 -9.18066,15.49319 -2.0569,4.93003 -7.52697,13.54528 -5.38729,19.17598 1.2503,3.29025 3.42216,4.35847 6.07251,6.47143 1.90897,1.04525 3.74417,2.23827 5.72689,3.13577 9.76946,4.42223 20.59338,6.38075 31.12824,7.88209 5.03724,0.71787 10.0878,1.39051 15.16233,1.76228 5.44881,0.39918 10.9207,0.36575 16.38105,0.54862 17.99486,-0.77733 35.40115,-5.3855 51.56909,-13.3242 5.32124,-2.61281 10.68526,-5.30389 15.39423,-8.90501 0.63617,-0.4865 -1.27053,-1.64326 -0.77657,-2.27366 3.52758,-4.50194 8.06306,-8.11371 12.0946,-12.17056 15.26693,-16.86216 25.83042,-35.35958 32.37061,-57.03026 -0.026,-2.59337 2.81262,-6.7694 1.35247,-9.47568 -1.18858,-2.20292 -7.23509,-1.26819 -8.49036,-1.23485 -10.44448,1.41432 -20.3476,5.48208 -29.61101,10.3964 -3.08525,1.63676 -6.68211,2.69891 -9.0673,5.2501 -1.78542,1.90967 4.77148,-2.13806 7.15722,-3.20709 -12.50651,9.2935 -23.31031,20.7369 -29.88846,35.00525 -1.16608,2.5293 -2.03754,5.18429 -3.05631,7.77643 -2.603,9.60539 -5.72311,20.17691 -4.89431,30.27041 0.59937,7.29932 1.73158,8.39809 4.61765,15.11806 1.74136,2.54217 3.24085,5.26818 5.22408,7.62652 10.73957,12.77094 26.21256,21.70355 41.48081,27.84564 5.49305,2.20973 11.18171,3.89813 16.77256,5.84719 6.32626,1.65944 12.59933,3.53682 18.97879,4.97832 13.11372,2.96316 27.07722,5.11803 40.41855,6.75626 13.25917,1.62814 24.39535,2.6088 37.71103,2.9575 5.71235,0.14958 11.4286,-0.0176 17.1429,-0.0264 16.42152,-0.44966 32.85741,-2.68854 48.68152,-7.17833 6.06584,-1.72107 8.23536,-2.73451 13.92835,-4.98974 14.31488,-7.35001 -5.29526,3.41235 -8.10864,4.81445 -1.14954,0.5729 2.13621,-1.43719 3.11061,-2.27397 2.38205,-2.04564 4.20542,-4.58222 5.87514,-7.2042 1.57589,-2.94592 2.26832,-6.18749 2.33841,-9.50161 -0.95396,-6.15652 19.57387,-17.54429 18.85715,-9.77588 0,0 -19.06911,9.54453 -19.06911,9.54453 l 0,0 c 0.41882,-7.82895 19.7767,-18.1634 19.12522,-9.3298 -0.15108,3.66086 -0.7538,7.28176 -2.29791,10.63962 -1.4938,2.75378 -3.53784,5.88125 -5.80576,8.06364 -0.98034,0.94337 -2.07874,1.77339 -3.24006,2.48216 -19.65028,11.9929 -14.51748,9.4886 -26.35686,14.74369 -5.86455,2.13918 -7.36927,2.8494 -13.61575,4.42093 -15.4943,3.89819 -31.48112,5.58502 -47.43692,5.71459 -5.65253,-0.0732 -11.30911,0.007 -16.9576,-0.2195 -19.21921,-0.76937 -38.37171,-3.1363 -57.3266,-6.33554 -6.9156,-1.16722 -13.82958,-2.37066 -20.68382,-3.85639 -6.51824,-1.4129 -12.94382,-3.22376 -19.41573,-4.83563 -12.71039,-4.18234 -20.29229,-6.12171 -32.10828,-12.03987 -10.13845,-5.07795 -20.95469,-12.97688 -28.49687,-21.51933 -2.12833,-2.41061 -3.75811,-5.21919 -5.63717,-7.82879 -3.03642,-6.73924 -4.44511,-8.38152 -5.20638,-15.75659 -1.06012,-10.27025 2.32581,-21.16922 4.80525,-30.98045 0.97896,-2.66085 1.78991,-5.3897 2.93689,-7.98256 6.48706,-14.66464 17.48802,-26.43565 30.09231,-36.08791 17.68718,-10.99063 37.89588,-25.691 58.97535,-30.25307 2.09925,-0.45433 4.24963,-0.62746 6.37445,-0.94119 3.42046,0.0465 8.75416,-0.66594 10.63346,3.35507 1.57176,3.363 -1.41334,7.58434 -1.83476,10.76153 -7.47188,21.74013 -18.81135,41.85472 -34.40509,58.87461 -4.03064,4.1366 -7.54769,8.84502 -12.0919,12.4098 -9.04736,7.09733 -18.81318,13.24088 -28.50167,19.43443 -15.23072,9.73653 -32.27636,16.67417 -50.10719,19.86903 -5.82839,1.04431 -11.78225,1.19227 -17.67338,1.78841 -5.55431,-0.16973 -11.1173,-0.15552 -16.66293,-0.5092 -8.3776,-0.53428 -20.67961,-2.03507 -29.11349,-3.60058 -7.19028,-1.33466 -12.71322,-2.61666 -19.31637,-5.45489 -2.15347,-0.92563 -4.15615,-2.16871 -6.23423,-3.25307 -3.18229,-2.57659 -5.48212,-3.7088 -7.06138,-7.64314 -2.64363,-6.58599 3.13557,-15.092 5.7017,-20.81496 3.9091,-6.63491 5.42567,-9.45115 9.98193,-16.05333 11.19308,-16.21919 23.91418,-31.36025 37.04779,-46.02293 4.0077,-4.32685 7.94461,-8.72036 12.02309,-12.98054 16.61734,-17.35763 34.17564,-33.80572 51.61261,-50.32648 1.39871,-1.33815 10.64481,-9.44243 10.82423,-12.16348 0.0476,-0.72184 -1.0465,-2.51091 -1.34264,-3.05229 -4.44729,-5.96903 -10.73697,-8.42496 -17.79623,-10.31749 -17.32485,-3.45709 -34.94653,-3.56153 -52.5624,-3.35098 -26.23579,-0.10085 -52.47207,-0.18631 -78.70796,-0.0678 -18.0353,0.0383 -36.07638,0.15531 -54.10121,0.82102 0,0 17.06931,-12.40158 17.06931,-12.40158 z"
       inkscape:connector-curvature="0" />
  </g>
</svg>
